<svg height="496pt" viewBox="-8 0 496 496" width="496pt" xmlns="http://www.w3.org/2000/svg" xmlns:xlink="http://www.w3.org/1999/xlink"><linearGradient id="a" gradientUnits="userSpaceOnUse" x1="240" x2="240" y1="496" y2="0"><stop offset="0" stop-color="#9f2fff"/><stop offset="1" stop-color="#0bb1d3"/></linearGradient><path d="m224 144c0-17.648438-14.351562-32-32-32s-32 14.351562-32 32 14.351562 32 32 32 32-14.351562 32-32zm-48 0c0-8.824219 7.175781-16 16-16s16 7.175781 16 16-7.175781 16-16 16-16-7.175781-16-16zm112-32c-17.648438 0-32 14.351562-32 32s14.351562 32 32 32 32-14.351562 32-32-14.351562-32-32-32zm0 48c-8.824219 0-16-7.175781-16-16s7.175781-16 16-16 16 7.175781 16 16-7.175781 16-16 16zm80.007812 72c10.015626-7.511719 15.992188-19.488281 15.992188-32v-8h8c13.230469 0 24-10.769531 24-24v-64c0-13.230469-10.769531-24-24-24h-9.449219c-7.648437-45.328125-47.078125-80-94.550781-80h-96c-47.472656 0-86.902344 34.671875-94.550781 80h-9.449219c-13.230469 0-24 10.769531-24 24v64c0 13.230469 10.769531 24 24 24h8v8c0 12.511719 5.976562 24.488281 16 32l16.441406 12.328125c.765625 7.015625 3.230469 13.480469 7.152344 18.9375l-49.480469 24.734375h-30.113281c-30.871094 0-56 25.128906-56 56v48h16v104h448v-104h16v-48c0-30.871094-25.128906-56-56-56h-30.113281l-49.480469-24.742188c3.929688-5.449218 6.386719-11.921874 7.152344-18.9375zm23.992188-136c4.414062 0 8 3.585938 8 8v64c0 4.414062-3.585938 8-8 8h-8v-80zm-304 80c-4.414062 0-8-3.585938-8-8v-64c0-4.414062 3.585938-8 8-8h8v80zm24 24v-104c0-44.113281 35.886719-80 80-80h96c44.113281 0 80 35.886719 80 80v104c0 7.511719-3.585938 14.6875-9.59375 19.199219l-6.40625 4.808593v-120.007812c0-13.230469-10.769531-24-24-24h-176c-13.230469 0-24 10.769531-24 24v120l-6.398438-4.800781c-6.015624-4.511719-9.601562-11.6875-9.601562-19.199219zm200 64h-144c-13.230469 0-24-10.769531-24-24v-136c0-4.414062 3.585938-8 8-8h176c4.414062 0 8 3.585938 8 8v136c0 13.230469-10.769531 24-24 24zm-120 16h104v32c0 8.824219-7.175781 16-16 16h-72c-8.824219 0-16-7.175781-16-16zm-160 144h48v16h-48zm-16-80c0-22.054688 17.945312-40 40-40h24v72h-64zm64 48v16h-48v-16zm-48 64h48v24h-48zm304 24h-16v-72h-160v72h-16v-88h192zm-32 0h-128v-56h128zm96 0v-24h48v24zm0-40v-16h48v16zm48-32h-48v-16h48zm16-64v32h-64v-72h24c22.054688 0 40 17.945312 40 40zm-80 136h-32v-88c0-8.824219-7.175781-16-16-16h-192c-8.824219 0-16 7.175781-16 16v88h-32v-179.054688l52.488281-26.25c5.800781 3.28125 12.390625 5.304688 19.511719 5.304688h8v32c0 17.648438 14.351562 32 32 32h72c17.648438 0 32-14.351562 32-32v-32c7.121094 0 13.710938-2.023438 19.511719-5.296875l52.488281 26.242187zm-208-232h128v-48h-128zm16-32h96v16h-96zm56 240h-16v-16h16zm-32 0h-16v-16h16zm64 0h-16v-16h16zm0 0" fill="url(#a)"/></svg>